<?xml version="1.0" encoding="utf-8" ?>
<svg xmlns="http://www.w3.org/2000/svg" xmlns:xlink="http://www.w3.org/1999/xlink" width="1024" height="1024">
	<path fill="#155698" d="M0 0L1024 0L1024 229.524L1024 1024L972.718 1024L265.859 1024L49.5002 1024L0 1024L0 0Z"/>
	<path fill="#2F92C8" d="M734.81 300.493C750.796 317.64 762.302 339.96 772.028 361.099Q773.587 364.701 775.057 368.34Q776.526 371.98 777.905 375.655Q779.284 379.33 780.571 383.038Q781.858 386.746 783.052 390.485Q784.247 394.224 785.348 397.991Q786.449 401.759 787.456 405.552Q788.464 409.346 789.376 413.163Q790.289 416.981 791.107 420.82Q791.925 424.659 792.647 428.517Q793.369 432.375 793.995 436.25Q794.621 440.124 795.15 444.014Q795.68 447.903 796.112 451.804Q796.545 455.705 796.881 459.616Q797.216 463.526 797.455 467.444Q797.693 471.362 797.835 475.285Q797.976 479.207 798.019 483.132Q798.063 487.057 798.009 490.981Q797.955 494.906 797.804 498.828Q797.652 502.75 797.403 506.667Q797.155 510.585 796.809 514.494Q796.463 518.404 796.02 522.304Q795.577 526.204 795.037 530.092Q794.497 533.98 793.861 537.853Q793.225 541.726 792.493 545.582Q791.76 549.438 790.933 553.275Q790.105 557.112 789.182 560.927Q788.259 564.742 787.242 568.533Q786.225 572.324 785.114 576.088Q784.003 579.853 782.798 583.589Q781.594 587.324 780.297 591.029Q779.001 594.734 777.612 598.405Q776.224 602.076 774.745 605.712Q772.818 610.525 770.729 615.271Q768.64 620.016 766.39 624.687Q764.141 629.359 761.734 633.951Q759.327 638.543 756.766 643.051Q754.204 647.559 751.491 651.977Q748.778 656.396 745.916 660.719Q743.054 665.042 740.047 669.266Q737.04 673.49 733.891 677.609Q730.742 681.728 727.455 685.737Q724.168 689.747 720.746 693.642Q717.325 697.538 713.773 701.315Q710.221 705.092 706.543 708.746Q702.865 712.4 699.064 715.927Q695.264 719.454 691.346 722.85Q687.428 726.246 683.397 729.506Q679.366 732.767 675.226 735.889Q665.851 743.076 655.725 749.158C651.166 751.922 641.522 756.557 638.152 759.861C635.325 747.88 633.68 735.486 630.318 723.664L627.254 709.257C629.278 706.443 632.515 703.847 635.035 701.41C642.218 694.463 650.019 687.675 656.522 680.1C659.11 678.699 675.905 661.492 679.027 658.516C682.343 655.354 684.052 652.103 685.334 647.753C690.052 631.741 688.411 595.346 688.864 577.109L691.148 503.704C691.652 491.424 691.506 478.316 693.461 466.196C694.058 462.497 695.179 459.179 697.097 455.954C701.917 447.845 709.197 443.097 718.204 440.732C718.739 430.508 720.871 420.039 722.381 409.904Q725.777 385.756 729.678 361.685C732.953 342.082 738.605 320.265 734.81 300.493Z"/>
	<path fill="#F8CCA1" d="M718.204 440.732C726.398 441.769 733.242 445.676 738.281 452.225C747.404 464.083 750.21 480.717 748.265 495.264C744.745 521.584 731.264 545.469 713.738 564.962C709.537 569.635 705.204 574.359 700.222 578.213C699.991 578.392 699.751 578.558 699.515 578.731L688.864 577.109L691.148 503.704C691.652 491.424 691.506 478.316 693.461 466.196C694.058 462.497 695.179 459.179 697.097 455.954C701.917 447.845 709.197 443.097 718.204 440.732Z"/>
	<path fill="#CD7C50" d="M696.252 503.142C697.935 490.774 701.058 471.719 711.8 463.665C713.731 462.217 716.006 461.399 718.427 461.862C722.316 462.605 725.194 466.087 727.146 469.284C733.563 479.79 733.759 492.851 730.7 504.463C729.952 507.304 728.919 510.248 727.742 512.941C726.051 509.861 726.985 503.159 726.857 499.518C726.751 496.501 726.34 492.558 723.881 490.46C721.787 488.674 718.552 488.572 715.961 488.946C707.533 490.159 704.272 496.341 699.659 502.348C698.796 503.471 698.43 503.919 697.022 504.107L696.252 503.142Z"/>
	<path fill="#D68C60" d="M696.252 503.142L697.022 504.107C698.43 503.919 698.796 503.471 699.659 502.348C704.272 496.341 707.533 490.159 715.961 488.946C718.552 488.572 721.787 488.674 723.881 490.46C726.34 492.558 726.751 496.501 726.857 499.518C726.985 503.159 726.051 509.861 727.742 512.941C723.056 528.965 706.566 551.026 691.961 559.351C693.157 545.541 693.445 531.65 694.628 517.821C695.035 513.068 695.145 507.779 696.252 503.142Z"/>
	<path fill="#2F92C8" d="M377.733 793.364C367.9 791.278 357.907 786.779 348.766 782.611C314.092 766.797 284.065 745.552 258.919 716.729C209.845 660.477 188.327 587.3 193.482 513.385Q193.77 509.374 194.167 505.372Q194.564 501.37 195.07 497.38Q195.575 493.39 196.188 489.415Q196.801 485.441 197.521 481.484Q198.241 477.527 199.069 473.592Q199.896 469.656 200.829 465.744Q201.763 461.832 202.802 457.947Q203.841 454.062 204.985 450.207Q206.129 446.351 207.376 442.528Q208.624 438.705 209.975 434.917Q211.326 431.129 212.779 427.379Q214.232 423.629 215.786 419.919Q217.339 416.21 218.993 412.544Q220.647 408.878 222.399 405.258Q224.152 401.639 226.001 398.068Q227.851 394.497 229.797 390.977C234.016 383.185 238.304 375.315 243.313 367.995Q249.067 359.654 255.352 351.704Q261.636 343.755 268.425 336.231Q275.214 328.707 282.477 321.641Q289.741 314.575 297.449 307.997C298.922 320.746 299.689 333.594 300.826 346.378Q303.359 374.378 306.522 402.313C307.936 415.077 308.978 428.123 311.649 440.692C318.815 444.414 324.279 448.179 329.803 454.112Q331.768 498.325 334.256 542.511C334.946 554.993 335.266 567.565 336.265 580.023C338.106 605.872 337.824 631.927 339.881 657.788C350.663 667.034 360.948 676.813 371.614 686.189C379.701 693.299 388.477 700.032 396.062 707.647Q393.232 721.893 390.018 736.058C385.832 755.139 382.075 774.319 377.733 793.364Z"/>
	<path fill="#E8A574" d="M336.265 580.023C322.17 576.7 312.234 572.702 302.872 561.156C287.844 542.621 269.938 501.084 272.692 477.453C274.044 465.851 280.861 452.702 290.205 445.547C296.9 440.42 303.553 439.685 311.649 440.692C318.815 444.414 324.279 448.179 329.803 454.112Q331.768 498.325 334.256 542.511C334.946 554.993 335.266 567.565 336.265 580.023Z"/>
	<path fill="#CD7C50" d="M303.414 465.825C306.565 464.621 308.919 463.955 312.12 465.394C316.986 467.581 320.44 473.235 322.098 478.175C323.936 483.653 323.295 497.322 323.571 503.891C324.021 514.618 324.779 525.377 325.077 536.104C321.115 528.095 318.572 518.127 315.944 509.571C311.478 495.036 306.991 480.608 303.414 465.825Z"/>
	<path fill="#D68C60" d="M326.013 550.148C319.405 545.317 314.074 539.361 309.603 532.513C300.869 519.137 290.579 497.527 294.199 481.058C295.348 475.827 298.82 468.752 303.414 465.825C306.991 480.608 311.478 495.036 315.944 509.571C318.572 518.127 321.115 528.095 325.077 536.104C326.607 539.096 325.952 546.593 326.013 550.148Z"/>
	<path fill="#01173A" d="M509.985 815.844C546.601 803.993 578.506 773.496 605.903 747.479C614.069 739.725 622.941 732.16 630.318 723.664C633.68 735.486 635.325 747.88 638.152 759.861Q643.607 785.399 649.942 810.734C656.595 810.528 681.054 820.287 688.944 822.886C701.576 826.757 713.978 831.45 726.427 835.864L796.5 860.993L849.224 879.37C869.444 886.409 889.661 892.463 907.546 904.662C925.747 917.076 939.547 935.407 949.825 954.723C961.277 976.244 968.322 1000.1 972.718 1024L265.859 1024L49.5002 1024C52.9777 1005.29 57.8798 987.246 65.5866 969.803C75.5176 947.326 91.7416 922.803 111.275 907.583C119.531 901.15 129.373 896.538 138.81 892.106C166.263 879.212 194.841 869.796 223.502 860.068Q275.757 842.37 328.46 826.056C342.863 821.593 358.212 818.247 372.18 812.726L372.851 812.457C375.405 808.342 376.335 798.417 377.733 793.364C382.075 774.319 385.832 755.139 390.018 736.058C390.121 736.162 390.225 736.264 390.326 736.37C396.834 743.172 401.611 752.235 407.538 759.633C429.198 786.671 460.3 815.755 496.808 816.999C501.097 817.145 505.839 817.037 509.985 815.844Z"/>
	<path fill="#E8A574" d="M390.018 736.058C390.121 736.162 390.225 736.264 390.326 736.37C396.834 743.172 401.611 752.235 407.538 759.633C429.198 786.671 460.3 815.755 496.808 816.999C501.097 817.145 505.839 817.037 509.985 815.844L510.417 920.303C466.029 903.01 414.779 868.56 384.218 831.94C380.431 827.401 375.881 822.872 373.042 817.68C371.845 815.491 372.167 814.728 372.851 812.457C375.405 808.342 376.335 798.417 377.733 793.364C382.075 774.319 385.832 755.139 390.018 736.058Z"/>
	<path fill="#F8CCA1" d="M509.985 815.844C546.601 803.993 578.506 773.496 605.903 747.479C614.069 739.725 622.941 732.16 630.318 723.664C633.68 735.486 635.325 747.88 638.152 759.861Q643.607 785.399 649.942 810.734C650.521 813.086 651.042 815.471 651.716 817.796C621.888 860.587 559.794 903.745 510.417 920.303L509.985 815.844Z"/>
	<path fill="#502E2E" d="M561.36 137.041C557.679 131.589 554.128 126.031 551.637 119.921C549.365 114.351 546.498 103.649 548.887 97.9234L549.642 97.6971L551.071 99.5744C566.969 119.884 589.19 128.661 612.395 137.841C650.241 152.816 687.033 167.245 699.674 209.932C703.998 224.533 705.778 240.087 703.876 255.243Q703.663 256.941 703.359 258.626C718.995 268.14 729.419 278.345 733.855 296.674C734.164 297.953 734.439 299.23 734.81 300.493C738.605 320.265 732.953 342.082 729.678 361.685Q725.777 385.756 722.381 409.904C720.871 420.039 718.739 430.508 718.204 440.732C709.197 443.097 701.917 447.845 697.097 455.954C695.179 459.179 694.058 462.497 693.461 466.196C691.506 478.316 691.652 491.424 691.148 503.704L688.864 577.109C688.411 595.346 690.052 631.741 685.334 647.753C684.052 652.103 682.343 655.354 679.027 658.516C675.905 661.492 659.11 678.699 656.522 680.1C650.019 687.675 642.218 694.463 635.035 701.41C632.515 703.847 629.278 706.443 627.254 709.257L630.318 723.664C622.941 732.16 614.069 739.725 605.903 747.479C578.506 773.496 546.601 803.993 509.985 815.844C505.839 817.037 501.097 817.145 496.808 816.999C460.3 815.755 429.198 786.671 407.538 759.633C401.611 752.235 396.834 743.172 390.326 736.37C390.225 736.264 390.121 736.162 390.018 736.058Q393.232 721.893 396.062 707.647C388.477 700.032 379.701 693.299 371.614 686.189C360.948 676.813 350.663 667.034 339.881 657.788C337.824 631.927 338.106 605.872 336.265 580.023C335.266 567.565 334.946 554.993 334.256 542.511Q331.768 498.325 329.803 454.112C324.279 448.179 318.815 444.414 311.649 440.692C308.978 428.123 307.936 415.077 306.522 402.313Q303.359 374.378 300.826 346.378C299.689 333.594 298.922 320.746 297.449 307.997C293.55 302.63 286.124 297.606 281.017 293.051Q267.383 281.086 254.706 268.112C271.075 269.646 286.415 269.719 302.736 267.539C296.413 263.024 289.234 259.62 282.671 255.437C271.761 248.484 261.825 239.529 253.046 230.045C280.543 235.221 310.815 216.786 333.193 202.462C316.803 186.281 312.215 174.238 305.457 152.913C312.653 157.358 320.558 159.676 328.817 161.277C346.524 164.711 365.318 162.833 382.662 158.252C393.941 155.272 405.114 151.533 416.602 149.424C422.873 148.273 429.429 148.179 435.793 147.855Q433.247 146.999 430.747 146.019C414.543 139.492 400.74 128.081 393.801 111.89C398.367 114.1 402.974 115.929 407.892 117.191C442.775 124.989 479.018 119.866 514.369 123.914C523.562 124.966 532.782 127.364 541.597 130.178C545.904 131.554 557.825 136.94 561.36 137.041Z"/>
	<path fill="#3A171D" d="M561.36 137.041C557.679 131.589 554.128 126.031 551.637 119.921C549.365 114.351 546.498 103.649 548.887 97.9234L549.642 97.6971L551.071 99.5744C550.238 101.609 549.819 103.079 550.731 105.175C554.901 114.758 570.556 129.086 578.19 137.016C591.794 151.148 606.513 167.365 614.946 185.256C610.369 180.582 606.497 175.313 601.939 170.632C592.764 161.206 572.615 144.388 561.501 138.534C561.204 138.378 560.911 138.214 560.616 138.056L560.081 137.774L560.457 138.447L560.484 137.508L561.291 137.451L561.36 137.041Z"/>
	<path fill="#F8CCA1" d="M483.26 612.199Q483.911 612.131 484.564 612.08C493.578 611.396 503.776 613.29 510.808 619.31C517.004 615.17 523.934 612.6 531.393 612.09C545.827 611.104 568.592 617.707 579.492 627.397C582.984 630.5 585.772 634.451 585.922 639.26C586.267 650.289 572.986 669.846 565.484 677.688C557.464 686.071 547.635 688.381 536.398 688.629C536.725 679.495 536.967 670.51 536.427 661.377C536.035 657.575 535.329 653.78 534.731 650.005Q511.94 650.361 489.152 649.871C486.119 662.232 486.562 675.891 487.45 688.525C478.795 688.567 468.915 687.149 461.886 681.583C453.72 675.118 438.44 651.671 437.567 641.286C437.192 636.818 438.514 632.909 441.41 629.5C450.751 618.504 469.525 613.587 483.26 612.199Z"/>
	<path fill="#3A171D" d="M463.589 629.189C472.037 628.448 482.602 629.348 491.234 629.407Q518.711 629.74 546.183 629.121C550.22 629.051 555.699 628.327 559.528 629.459C558.565 630.34 557.907 630.428 556.688 630.751C530.683 636.308 501.685 636.86 475.565 631.94C471.593 631.192 467.397 630.556 463.589 629.189Z"/>
	<path fill="#3A171D" d="M393.801 111.89C398.367 114.1 402.974 115.929 407.892 117.191L407.458 118.19C415.136 124.597 426.117 126.931 435.302 130.43C462.947 140.963 500.571 154.454 520.616 176.9C482.328 155.316 432.18 160.237 391.429 171.633C377.971 175.396 363.873 178.669 350.814 183.606C391.97 188.083 433.754 197.98 473.362 209.954C459.609 210.652 445.993 209.424 432.175 210.545Q425.135 211.067 418.133 211.966Q411.131 212.865 404.188 214.14Q397.245 215.415 390.38 217.061Q383.515 218.707 376.749 220.72C364.183 224.553 352.013 229.374 339.57 233.535C330.809 236.465 321.481 238.24 312.894 241.566C325.865 244.311 339.011 245.952 352.131 247.813Q394.29 254.16 436.877 256.168C422.15 260.749 407.359 265.769 392.338 269.298C375.379 273.282 358.109 275.382 340.843 277.503C355.014 281.86 369.06 284.447 383.76 286.239C426.66 291.467 470.178 286.946 508.838 266.49Q513.367 264.057 517.821 261.489C500.909 278.366 483.096 291.177 465.24 306.732C485.077 300.859 503.656 292.011 522.66 284.013C550.109 272.459 581.193 261.97 611.324 263.05C623.148 263.474 635.453 265.733 645.933 271.463C654.492 276.142 659.973 282.46 663.644 291.43C673.148 288.915 679.757 284.043 688.58 280.445C704.343 296.086 709.428 316.099 709.477 337.655Q709.446 346.248 708.134 354.74C706.292 366.393 692.333 434.61 687.497 441.273C687.173 441.719 687.071 442.311 686.91 442.833C686.315 438.862 687.01 434.839 686.418 430.905C686.025 426.141 686.4 421.078 686.438 416.288C686.532 404.599 686.898 392.915 686.925 381.226C679.047 371.668 670.612 362.503 662.338 353.285C661.538 334.085 661.533 314.78 661.409 295.564C604.337 263.97 546.527 292.275 492.956 315.595C465.671 327.472 438.888 339.117 408.475 338.462C428.946 333.712 438.988 324.286 454.002 310.327C446.071 312.47 438.352 315.59 430.496 318.025C422.314 320.562 413.903 322.304 405.559 324.209C389.651 327.193 373.603 328.433 357.447 328.985L354.912 358.933C349.973 364.729 342.233 371.421 339.223 378.381C335.781 386.342 335.113 440.185 335.959 451.188C337.015 464.92 339.178 478.628 341.125 492.257C345.074 519.886 350.581 564.05 364.885 587.656C373.067 601.159 385.729 612.16 397.66 622.315Q403.675 627.359 409.606 632.502C409.682 632.781 409.766 633.058 409.833 633.339C410.948 637.958 409.204 642.772 411.122 647.563C415.719 659.042 423.951 669.783 431.181 679.755C451.038 707.145 472.795 734.051 497.376 757.373C508.389 758.062 519.481 757.761 530.509 757.677C557.158 757.473 568.722 757.979 589.861 739.363C604.781 726.224 619.016 712.315 633.808 699.033C636.559 696.563 639.618 694.477 642.384 692.03C645.818 688.991 652.325 681.39 656.522 680.1C650.019 687.675 642.218 694.463 635.035 701.41C632.515 703.847 629.278 706.443 627.254 709.257L630.318 723.664C622.941 732.16 614.069 739.725 605.903 747.479C578.506 773.496 546.601 803.993 509.985 815.844C505.839 817.037 501.097 817.145 496.808 816.999C460.3 815.755 429.198 786.671 407.538 759.633C401.611 752.235 396.834 743.172 390.326 736.37C390.225 736.264 390.121 736.162 390.018 736.058Q393.232 721.893 396.062 707.647C388.477 700.032 379.701 693.299 371.614 686.189C360.948 676.813 350.663 667.034 339.881 657.788C337.824 631.927 338.106 605.872 336.265 580.023C335.266 567.565 334.946 554.993 334.256 542.511Q331.768 498.325 329.803 454.112C324.279 448.179 318.815 444.414 311.649 440.692C308.978 428.123 307.936 415.077 306.522 402.313Q303.359 374.378 300.826 346.378C299.689 333.594 298.922 320.746 297.449 307.997C293.55 302.63 286.124 297.606 281.017 293.051Q267.383 281.086 254.706 268.112C271.075 269.646 286.415 269.719 302.736 267.539C296.413 263.024 289.234 259.62 282.671 255.437C271.761 248.484 261.825 239.529 253.046 230.045C280.543 235.221 310.815 216.786 333.193 202.462C316.803 186.281 312.215 174.238 305.457 152.913C312.653 157.358 320.558 159.676 328.817 161.277C346.524 164.711 365.318 162.833 382.662 158.252C393.941 155.272 405.114 151.533 416.602 149.424C422.873 148.273 429.429 148.179 435.793 147.855Q433.247 146.999 430.747 146.019C414.543 139.492 400.74 128.081 393.801 111.89Z"/>
	<path fill="#D68C60" d="M396.062 707.647C405.594 716.369 415.392 724.785 424.99 733.433C434.41 741.921 444.069 751.472 454.57 758.542Q457.689 760.626 461.07 762.251Q464.451 763.875 468.027 765.008C479.437 768.59 505.59 767.314 518.406 767.251C528.187 767.203 538.05 767.429 547.819 767.036Q549.184 766.993 550.545 766.871Q551.905 766.749 553.256 766.548Q554.607 766.348 555.944 766.069Q557.282 765.791 558.6 765.435Q559.919 765.08 561.215 764.649Q562.511 764.217 563.78 763.712Q565.049 763.206 566.287 762.628Q567.524 762.05 568.726 761.401C578.816 755.948 587.061 747.457 595.335 739.65C606.01 729.578 616.389 719.116 627.254 709.257L630.318 723.664C622.941 732.16 614.069 739.725 605.903 747.479C578.506 773.496 546.601 803.993 509.985 815.844C505.839 817.037 501.097 817.145 496.808 816.999C460.3 815.755 429.198 786.671 407.538 759.633C401.611 752.235 396.834 743.172 390.326 736.37C390.225 736.264 390.121 736.162 390.018 736.058Q393.232 721.893 396.062 707.647Z"/>
	<path fill="#F8CCA1" d="M408.475 338.462C438.888 339.117 465.671 327.472 492.956 315.595C546.527 292.275 604.337 263.97 661.409 295.564C661.533 314.78 661.538 334.085 662.338 353.285C670.612 362.503 679.047 371.668 686.925 381.226C686.898 392.915 686.532 404.599 686.438 416.288C686.4 421.078 686.025 426.141 686.418 430.905C685.81 440.259 686.111 449.666 685.554 459.034C683.722 489.851 677.601 545.843 664.9 572.942C658.106 587.438 648.294 599.899 636.305 610.445C628.695 617.139 620.375 623.237 611.4 627.975C602.933 608.02 586.18 595.204 566.347 587.125C554.335 582.232 539.736 579.163 526.74 580.05C521.869 580.382 516.93 581.719 512.095 581.803C508.612 581.863 505.045 580.68 501.529 580.495C485.146 579.633 468.321 581.254 453.12 587.698C440.771 592.932 430.158 600.653 422.293 611.614C417.693 618.586 414.437 625.769 411.825 633.689C410.605 633.559 410.519 633.258 409.606 632.502Q403.675 627.359 397.66 622.315C385.729 612.16 373.067 601.159 364.885 587.656C350.581 564.05 345.074 519.886 341.125 492.257C339.178 478.628 337.015 464.92 335.959 451.188C335.113 440.185 335.781 386.342 339.223 378.381C342.233 371.421 349.973 364.729 354.912 358.933L357.447 328.985C373.603 328.433 389.651 327.193 405.559 324.209C413.903 322.304 422.314 320.562 430.496 318.025C438.352 315.59 446.071 312.47 454.002 310.327C438.988 324.286 428.946 333.712 408.475 338.462Z"/>
	<path fill="#D68C60" d="M492.738 435.283C495.704 440.547 496.032 448.544 496.812 454.481C500.068 479.274 499.608 504.592 493.81 528.985C492.035 536.456 489.456 543.668 487.453 551.07C497.487 562.503 511.616 567.611 526.359 562.043C529.706 560.778 533.533 557.693 537.207 557.954C537.774 558.931 537.807 559.173 537.601 560.343C536.688 565.539 531.967 570.141 527.844 573.035C524.694 574.89 521.336 576.345 517.749 577.1C506.199 579.53 494.056 573.628 484.591 567.468C479.928 564.434 472.774 559.417 473.047 553.171C473.307 547.247 483.992 531.441 487.055 525.181C498.831 501.113 498.223 461.202 492.738 435.283Z"/>
	<path fill="#502E2E" d="M577.334 422.253C572.105 423.546 566.137 425.561 560.74 424.574C557.676 424.014 555.199 421.917 553.489 419.393C550.605 415.135 549.431 408.699 550.425 403.646C550.844 401.515 551.933 399.134 553.856 397.958C559.933 394.243 625.144 387.294 631.697 389.275C645.813 393.542 657.234 413.052 663.843 425.316C660.205 423.66 656.632 421.839 653.007 420.148C622.071 407.202 607.478 415.135 577.334 422.253Z"/>
	<path fill="#FFF7E1" d="M577.334 422.253C607.478 415.135 622.071 407.202 653.007 420.148C652.943 420.44 652.876 420.731 652.815 421.024C650.644 431.525 653.299 456.448 643.589 462.782C642.377 463.572 640.924 463.971 639.553 464.392C638.328 463.075 638.382 461.501 638.094 459.762C638.237 467.632 635.11 475.644 630.042 481.627C623.648 489.175 613.454 494.704 603.543 495.439Q602.704 495.493 601.863 495.507Q601.021 495.52 600.181 495.492Q599.34 495.464 598.502 495.394Q597.664 495.325 596.83 495.215Q595.996 495.104 595.168 494.953Q594.341 494.802 593.522 494.61Q592.703 494.418 591.894 494.187Q591.086 493.955 590.289 493.684Q589.493 493.413 588.711 493.103Q587.929 492.793 587.163 492.445Q586.397 492.097 585.649 491.712Q584.902 491.327 584.174 490.906Q583.446 490.484 582.739 490.028Q582.033 489.571 581.349 489.08Q580.666 488.59 580.008 488.066Q579.35 487.542 578.718 486.987C567.341 477.156 568.345 469.595 567.426 456.219C566.475 452.467 569.041 448.208 570.828 445.034C569.715 435.065 576.631 429.316 577.334 422.253Z"/>
	<path fill="#155698" d="M595.41 441.096C599.985 440.691 604.185 440.752 608.537 442.48C613.876 444.6 618.121 448.724 620.19 454.105C622.396 459.841 622.472 466.58 619.802 472.173C616.617 478.845 610.88 482.156 604.172 484.436C599.129 485.061 594.327 484.442 589.789 482.068Q589.295 481.815 588.815 481.539Q588.334 481.262 587.868 480.961Q587.401 480.661 586.951 480.337Q586.5 480.014 586.066 479.669Q585.632 479.323 585.216 478.957Q584.799 478.59 584.402 478.204Q584.004 477.817 583.627 477.411Q583.249 477.004 582.892 476.58Q582.535 476.156 582.199 475.714Q581.864 475.272 581.551 474.814Q581.238 474.356 580.948 473.883Q580.658 473.411 580.392 472.924Q580.126 472.437 579.885 471.938Q579.644 471.438 579.427 470.927Q579.211 470.417 579.021 469.896Q578.83 469.375 578.666 468.845C576.899 463.149 577.353 457.147 580.324 451.938C583.691 446.032 589.054 442.885 595.41 441.096Z"/>
	<path fill="#FFF7E1" d="M601.993 452.892C603.517 450.751 605.301 448.972 608.025 448.585C609.979 448.307 611.877 448.832 613.367 450.14C615.119 451.675 615.952 453.972 615.942 456.269C615.93 458.766 614.853 460.679 613.267 462.51C613.078 462.729 612.894 462.95 612.704 463.167C612.58 463.309 612.452 463.447 612.326 463.586C612.132 463.591 611.939 463.602 611.745 463.602C608.799 463.609 605.939 463.175 603.874 460.841C601.805 458.505 601.8 455.838 601.993 452.892Z"/>
	<path fill="#171D01" d="M612.326 463.586C612.229 463.735 612.139 463.889 612.036 464.034C609.486 467.605 605.357 471.567 600.867 472.184Q600.404 472.251 599.937 472.271Q599.469 472.291 599.002 472.263Q598.535 472.236 598.073 472.162Q597.611 472.087 597.159 471.967Q596.707 471.846 596.269 471.681Q595.832 471.515 595.413 471.306Q594.994 471.098 594.599 470.848Q594.203 470.598 593.835 470.309C591.738 468.659 590.516 466.193 590.199 463.57C589.89 461.011 590.489 458.349 592.179 456.36C594.856 453.208 598.179 453.212 601.993 452.892C601.8 455.838 601.805 458.505 603.874 460.841C605.939 463.175 608.799 463.609 611.745 463.602C611.939 463.602 612.132 463.591 612.326 463.586Z"/>
	<path fill="#E8A574" d="M577.334 422.253C607.478 415.135 622.071 407.202 653.007 420.148C652.943 420.44 652.876 420.731 652.815 421.024C650.644 431.525 653.299 456.448 643.589 462.782C642.377 463.572 640.924 463.971 639.553 464.392C638.328 463.075 638.382 461.501 638.094 459.762C637.677 457.366 636.805 454.994 635.695 452.83C631.53 444.721 624.01 438.905 615.379 436.178C604.633 432.783 592.483 434.505 582.592 439.69C575.441 443.438 569.86 448.348 567.426 456.219C566.475 452.467 569.041 448.208 570.828 445.034C569.715 435.065 576.631 429.316 577.334 422.253Z"/>
	<path fill="#171D01" d="M570.828 445.034C578.141 434.987 586.309 429.538 598.759 427.64C608.646 426.132 618.916 428.145 626.994 434.212C633.771 439.3 638.795 447.495 639.979 455.909C640.397 458.879 640.313 461.488 639.553 464.392C638.328 463.075 638.382 461.501 638.094 459.762C637.677 457.366 636.805 454.994 635.695 452.83C631.53 444.721 624.01 438.905 615.379 436.178C604.633 432.783 592.483 434.505 582.592 439.69C575.441 443.438 569.86 448.348 567.426 456.219C566.475 452.467 569.041 448.208 570.828 445.034Z"/>
	<path fill="#E8A574" d="M357.447 328.985C373.603 328.433 389.651 327.193 405.559 324.209C405.302 345.385 406.372 366.564 405.805 387.731C418.817 389.919 432.016 391.321 445.107 392.966C452.17 393.853 459.86 394.35 466.693 396.366C468.777 396.98 471.178 397.696 472.438 399.605C474.613 402.898 473.904 407.927 472.994 411.534C471.888 415.915 469.903 419.949 465.792 422.216C459.051 425.934 450.383 421.782 443.447 420.649C442.644 423.774 445.468 428.264 447.06 430.974C452.031 439.436 458.751 449.034 457.334 459.444C456.986 462.005 456.891 464.34 456.054 466.833C454.54 475.47 451.105 482.1 443.747 487.201C436.297 492.366 426.52 495.07 417.53 493.346C410.653 492.027 403.347 488.221 398.155 483.555C396.894 485.35 397.069 486.45 397.438 488.579C398.835 496.638 400.799 504.454 401.7 512.614C404.883 541.437 404.299 571.15 414.135 598.852C415.534 602.791 417.34 608.248 420.894 610.708C421.228 610.939 421.575 611.149 421.917 611.368C422.043 611.449 422.167 611.532 422.293 611.614C417.693 618.586 414.437 625.769 411.825 633.689C410.605 633.559 410.519 633.258 409.606 632.502Q403.675 627.359 397.66 622.315C385.729 612.16 373.067 601.159 364.885 587.656C350.581 564.05 345.074 519.886 341.125 492.257C339.178 478.628 337.015 464.92 335.959 451.188C335.113 440.185 335.781 386.342 339.223 378.381C342.233 371.421 349.973 364.729 354.912 358.933L357.447 328.985Z"/>
	<path fill="#171D01" d="M391.623 470.787C391.43 470.66 391.209 470.568 391.043 470.408C388.926 468.363 386.967 462.3 386.63 459.496C385.907 453.482 389.728 446.031 393.494 441.482C399.252 434.53 408.494 430.008 417.458 429.286C426.88 428.527 437.016 432.262 444.09 438.437C448.119 441.954 453.463 448.56 453.848 453.956C449.221 445.401 442.975 439.797 433.578 436.995C424.534 434.298 414.884 435.107 406.603 439.741C399.473 443.731 394.647 450.495 392.541 458.309C391.413 462.495 391.333 466.493 391.623 470.787Z"/>
	<path fill="#502E2E" d="M371.674 402.459C375.954 399.937 402.169 387.916 405.805 387.731C418.817 389.919 432.016 391.321 445.107 392.966C452.17 393.853 459.86 394.35 466.693 396.366C468.777 396.98 471.178 397.696 472.438 399.605C474.613 402.898 473.904 407.927 472.994 411.534C471.888 415.915 469.903 419.949 465.792 422.216C459.051 425.934 450.383 421.782 443.447 420.649C430.918 418.264 409.289 411.483 397.881 411.337C393.631 411.282 389.376 412.206 385.355 413.524C376.651 416.378 368.302 421.14 360.161 425.283C364.405 417.881 367.232 409.71 371.674 402.459Z"/>
	<path fill="#FFF7E1" d="M391.623 470.787C391.333 466.493 391.413 462.495 392.541 458.309C394.647 450.495 399.473 443.731 406.603 439.741C414.884 435.107 424.534 434.298 433.578 436.995C442.975 439.797 449.221 445.401 453.848 453.956C455.431 458.3 456.085 462.22 456.054 466.833C454.54 475.47 451.105 482.1 443.747 487.201C436.297 492.366 426.52 495.07 417.53 493.346C410.653 492.027 403.347 488.221 398.155 483.555C394.896 480.191 393.039 475.177 391.623 470.787Z"/>
	<path fill="#155698" d="M421.88 443.135C426.671 442.799 430.896 443.245 435.202 445.644Q435.638 445.882 436.06 446.143Q436.483 446.403 436.891 446.685Q437.3 446.968 437.693 447.271Q438.087 447.573 438.464 447.896Q438.841 448.219 439.201 448.562Q439.56 448.904 439.902 449.264Q440.243 449.625 440.566 450.002Q440.888 450.38 441.19 450.774Q441.493 451.168 441.774 451.577Q442.055 451.986 442.315 452.409Q442.575 452.832 442.812 453.268Q443.05 453.704 443.264 454.152Q443.479 454.599 443.669 455.058Q443.86 455.516 444.027 455.984Q444.194 456.451 444.336 456.927Q444.479 457.403 444.596 457.885C445.997 463.532 444.821 469.438 441.625 474.272C438.029 479.71 432.827 482.527 426.624 483.915C422.15 484.338 417.908 483.799 413.836 481.773C409.101 479.417 405.434 475.35 403.907 470.255C402.289 464.855 402.955 458.649 405.841 453.788C409.48 447.659 415.234 444.843 421.88 443.135Z"/>
	<path fill="#FFF7E1" d="M415.588 463.89C414.253 463.699 412.931 463.495 411.725 462.855C410.082 461.981 408.75 460.441 408.345 458.606C407.901 456.596 408.483 454.506 409.577 452.802C410.918 450.715 413.334 448.906 415.833 448.561C417.404 448.344 418.789 448.761 420.01 449.78C422.618 451.955 422.647 455.386 422.803 458.478C422.006 460.691 421.311 461.743 419.124 462.72C417.977 463.232 416.798 463.566 415.588 463.89Z"/>
	<path fill="#171D01" d="M422.803 458.478C422.851 456.915 422.883 455.353 423.012 453.794C424.112 453.302 424.686 453.282 425.85 453.683C428.94 454.747 431.839 457.655 433.062 460.66C433.931 462.796 434.03 465.158 433.121 467.299C431.983 469.98 429.223 472.237 426.506 473.171C424.079 474.006 421.233 473.995 418.954 472.734C417.322 471.831 415.858 470.154 415.5 468.283C415.232 466.885 415.427 465.294 415.588 463.89C416.798 463.566 417.977 463.232 419.124 462.72C421.311 461.743 422.006 460.691 422.803 458.478Z"/>
</svg>
