<?xml version="1.0" encoding="utf-8" ?>
<svg xmlns="http://www.w3.org/2000/svg" xmlns:xlink="http://www.w3.org/1999/xlink" width="32" height="32">
	<path fill="#F8EBDB" transform="scale(0.03125 0.03125)" d="M0 0L1024 0L1024 1024L0 1024L0 0Z"/>
	<path fill="#91D9BE" transform="scale(0.03125 0.03125)" d="M351.389 243.998C373.917 244.789 396.537 243.413 419.036 244.253Q457.745 349.972 494.252 456.472C501.171 476.443 507.658 496.566 514.774 516.467L570.291 671.895Q585.111 712.138 599.201 752.642C602.446 761.973 606.009 771.194 608.998 780.612Q588.439 780.443 567.879 780.59C559.504 780.683 551.108 781.107 542.736 781.035C536.081 766.302 530.928 750.664 525.665 735.389Q514.361 701.747 502.406 668.331Q443.178 503.622 387.031 337.838L367.684 282.562C365.825 277.115 356.84 248.443 354.898 245.773C353.851 244.332 353.001 244.383 351.389 243.998Z"/>
	<path fill="#F4865A" transform="scale(0.03125 0.03125)" d="M779.408 243.892L913.958 244.013L796.373 602.62C780.795 650.04 765.879 697.705 749.809 744.96L749.708 744.93L749.675 744.616L749.165 744.882C746.234 740.026 744.73 732.516 742.959 727.074Q735.64 704.767 728.696 682.34L693.31 574.83C689.724 563.717 684.672 552.278 681.829 541.056C681.551 539.958 681.533 539.15 681.65 538.034C691.119 506.918 701.783 476.219 712.169 445.404L747.798 337.694C758.324 306.423 769.473 275.359 779.408 243.892Z"/>
	<path fill="#91D9BE" transform="scale(0.03125 0.03125)" d="M286.021 247.366C292.361 264.665 297.86 282.154 303.751 299.601L334.745 391.538C340.806 409.677 346.606 427.902 353.265 445.835C350.413 452.236 348.498 459.388 346.293 466.048L332.581 508.215C329.015 518.937 325.645 529.776 321.867 540.419C315.64 557.961 308.786 575.824 304.572 593.99C296.835 618.316 287.704 642.174 279.676 666.401C276.984 674.523 273.448 683.144 271.572 691.47C268.63 695.427 244.398 768.275 240.827 779.53L153.88 779.593C138.806 779.626 123.692 780.086 108.625 779.642C118.143 748.185 129.479 717.16 139.888 685.982Q170.195 592.528 201.83 499.516L260.512 324.535Q267.008 305.371 273.199 286.106C277.296 273.125 281.12 260.077 286.021 247.366Z"/>
	<path fill="#5FB9AB" transform="scale(0.03125 0.03125)" d="M286.021 247.366C286.195 246.186 286.399 245.449 287.005 244.419C291.647 243.056 300.282 243.986 305.355 244C320.667 244.044 336.089 244.493 351.389 243.998C353.001 244.383 353.851 244.332 354.898 245.773C356.84 248.443 365.825 277.115 367.684 282.562L387.031 337.838Q443.178 503.621 502.406 668.331Q514.361 701.747 525.665 735.389C530.928 750.664 536.081 766.302 542.736 781.035C518.527 780.515 494.196 780.836 469.977 780.969C465.095 770.384 461.673 758.729 457.823 747.716Q447.877 719.736 438.692 691.496L271.572 691.47C273.448 683.144 276.984 674.523 279.676 666.401C287.704 642.174 296.835 618.316 304.572 593.99C308.786 575.824 315.64 557.961 321.867 540.419C325.645 529.776 329.015 518.937 332.581 508.215L346.293 466.048C348.498 459.388 350.413 452.236 353.265 445.835C346.606 427.902 340.806 409.677 334.745 391.538L303.751 299.601C297.86 282.154 292.361 264.665 286.021 247.366Z"/>
	<path fill="#F8EBDB" transform="scale(0.03125 0.03125)" d="M304.572 593.99C308.786 575.824 315.64 557.961 321.867 540.419C325.645 529.776 329.015 518.937 332.581 508.215L346.293 466.048C348.498 459.388 350.413 452.236 353.265 445.835Q370.427 494.725 386.417 544.011C391.981 560.669 398.143 577.155 403.005 594.039Q353.788 594.44 304.572 593.99Z"/>
	<path fill="#EDB6BB" transform="scale(0.03125 0.03125)" d="M448.328 244.472C463.544 243.219 479.432 244.071 494.72 244.097Q539.975 244.337 585.23 244.078C594.006 267.685 601.089 292.173 608.997 316.102L661.174 475.612C664.105 484.633 678.197 533.519 681.65 538.034C681.533 539.15 681.551 539.958 681.829 541.056C684.672 552.278 689.724 563.717 693.31 574.83L728.696 682.34Q735.639 704.767 742.959 727.074C744.73 732.516 746.234 740.026 749.165 744.882L749.675 744.616L749.708 744.93L749.809 744.96C748.645 749.456 746.762 753.924 745.246 758.332Q741.438 769.483 738.201 780.813C704.808 781.545 671.324 780.933 637.908 781.368C635.125 773.881 632.811 766.21 630.133 758.682L597.677 665.612L561.584 564.292L497.63 382.19C494.588 373.685 491.195 365.305 488.105 356.817C484.023 345.602 480.498 334.187 476.466 322.952C467.078 296.797 457.271 270.789 448.328 244.472Z"/>
</svg>
